<svg width="24" height="24" viewBox="0 0 24 24" fill="none" xmlns="http://www.w3.org/2000/svg">
  <g clip-path="url(#clip0)">
  <path d="M13.8476 9.79681C13.6406 9.79681 13.4729 9.96455 13.4729 10.1715V17.2535C13.4729 17.4603 13.6406 17.6282 13.8476 17.6282C14.0546 17.6282 14.2223 17.4603 14.2223 17.2535V10.1715C14.2223 9.96455 14.0546 9.79681 13.8476 9.79681Z" fill="#22242C"/>
  <path d="M9.42598 9.79681C9.21901 9.79681 9.05127 9.96455 9.05127 10.1715V17.2535C9.05127 17.4603 9.21901 17.6282 9.42598 17.6282C9.63294 17.6282 9.80068 17.4603 9.80068 17.2535V10.1715C9.80068 9.96455 9.63294 9.79681 9.42598 9.79681Z" fill="#22242C"/>
  <path d="M6.20363 8.76329V17.9953C6.20363 18.5409 6.40372 19.0534 6.75325 19.421C7.10117 19.7898 7.58536 19.9991 8.09209 19.9999H15.1816C15.6885 19.9991 16.1727 19.7898 16.5205 19.421C16.87 19.0534 17.0701 18.5409 17.0701 17.9953V8.76329C17.7649 8.57887 18.2152 7.90762 18.1222 7.19465C18.0291 6.48183 17.4218 5.94861 16.7029 5.94846H14.7844V5.48008C14.7866 5.0862 14.6309 4.70798 14.352 4.42973C14.0732 4.15163 13.6944 3.99677 13.3005 3.99999H9.97323C9.57935 3.99677 9.20055 4.15163 8.92171 4.42973C8.64288 4.70798 8.48714 5.0862 8.48934 5.48008V5.94846H6.57087C5.8519 5.94861 5.24462 6.48183 5.15153 7.19465C5.05858 7.90762 5.50881 8.57887 6.20363 8.76329ZM15.1816 19.2505H8.09209C7.45143 19.2505 6.95304 18.7002 6.95304 17.9953V8.79623H16.3207V17.9953C16.3207 18.7002 15.8223 19.2505 15.1816 19.2505ZM9.23875 5.48008C9.23626 5.28497 9.31296 5.09717 9.45142 4.95944C9.58974 4.82171 9.77798 4.74603 9.97323 4.7494H13.3005C13.4958 4.74603 13.684 4.82171 13.8223 4.95944C13.9608 5.09703 14.0375 5.28497 14.035 5.48008V5.94846H9.23875V5.48008ZM6.57087 6.69787H16.7029C17.0754 6.69787 17.3773 6.99983 17.3773 7.37234C17.3773 7.74485 17.0754 8.04681 16.7029 8.04681H6.57087C6.19836 8.04681 5.8964 7.74485 5.8964 7.37234C5.8964 6.99983 6.19836 6.69787 6.57087 6.69787Z" fill="#22242C"/>
  <path d="M11.6369 9.79681C11.4299 9.79681 11.2622 9.96455 11.2622 10.1715V17.2535C11.2622 17.4603 11.4299 17.6282 11.6369 17.6282C11.8439 17.6282 12.0116 17.4603 12.0116 17.2535V10.1715C12.0116 9.96455 11.8439 9.79681 11.6369 9.79681Z" fill="#22242C"/>
  </g>
  <defs>
  <clipPath id="clip0">
  <rect width="16" height="16" fill="white" transform="translate(3.64062 4)"/>
  </clipPath>
  </defs>
  </svg>
