<svg width="24" height="24" viewBox="0 0 24 24" fill="none" xmlns="http://www.w3.org/2000/svg">
<mask id="path-1-inside-1" fill="white">
</mask>
<path d="M24 9.125C24 8.84886 23.7761 8.625 23.5 8.625C23.2239 8.625 23 8.84886 23 9.125H24ZM14.5556 1C14.8317 1 15.0556 0.776142 15.0556 0.5C15.0556 0.223858 14.8317 0 14.5556 0V1ZM17.5 23H6.5V24H17.5V23ZM1 17.5V6.5H0V17.5H1ZM23 9.125V17.5H24V9.125H23ZM6.5 1H14.5556V0H6.5V1ZM6.5 23C3.46243 23 1 20.5376 1 17.5H0C0 21.0898 2.91015 24 6.5 24V23ZM17.5 24C21.0898 24 24 21.0898 24 17.5H23C23 20.5376 20.5376 23 17.5 23V24ZM1 6.5C1 3.46243 3.46243 1 6.5 1V0C2.91015 0 0 2.91015 0 6.5H1Z" fill="#646D7C" mask="#path-1-inside-1"/>
<path d="M24 9.125C24 8.84886 23.7761 8.625 23.5 8.625C23.2239 8.625 23 8.84886 23 9.125H24ZM14.5556 1C14.8317 1 15.0556 0.776142 15.0556 0.5C15.0556 0.223858 14.8317 0 14.5556 0V1ZM17.5 23H6.5V24H17.5V23ZM1 17.5V6.5H0V17.5H1ZM23 9.125V17.5H24V9.125H23ZM6.5 1H14.5556V0H6.5V1ZM6.5 23C3.46243 23 1 20.5376 1 17.5H0C0 21.0898 2.91015 24 6.5 24V23ZM17.5 24C21.0898 24 24 21.0898 24 17.5H23C23 20.5376 20.5376 23 17.5 23V24ZM1 6.5C1 3.46243 3.46243 1 6.5 1V0C2.91015 0 0 2.91015 0 6.5H1Z" fill="#646D7C" mask="#path-1-inside-1"/>
<circle cx="21" cy="3" r="3" fill="#409BEF"/>
<path d="M14.7983 17H9.30234V15.968L12.0383 13.448C12.4303 13.088 12.7583 12.708 13.0223 12.308C13.2863 11.9 13.4183 11.492 13.4183 11.084V10.94C13.4183 10.476 13.2903 10.1 13.0343 9.812C12.7783 9.524 12.3903 9.38 11.8703 9.38C11.6143 9.38 11.3903 9.416 11.1983 9.488C11.0063 9.56 10.8383 9.66 10.6943 9.788C10.5583 9.916 10.4423 10.068 10.3463 10.244C10.2583 10.412 10.1863 10.596 10.1303 10.796L9.23034 10.448C9.31034 10.2 9.41834 9.96 9.55434 9.728C9.69834 9.488 9.87434 9.276 10.0823 9.092C10.2983 8.908 10.5543 8.76 10.8503 8.648C11.1543 8.536 11.5103 8.48 11.9183 8.48C12.3263 8.48 12.6903 8.54 13.0103 8.66C13.3303 8.78 13.5983 8.948 13.8143 9.164C14.0303 9.38 14.1943 9.636 14.3063 9.932C14.4263 10.228 14.4863 10.556 14.4863 10.916C14.4863 11.244 14.4383 11.548 14.3423 11.828C14.2543 12.108 14.1303 12.376 13.9703 12.632C13.8103 12.88 13.6143 13.124 13.3823 13.364C13.1583 13.604 12.9143 13.844 12.6503 14.084L10.3943 16.112H14.7983V17Z" fill="#646D7C"/>
</svg>
